HIERARCHY
ROOT Root
{
  OFFSET 0.0 0.0 0.0
  CHANNELS 6 Xposition Yposition Zposition Zrotation Yrotation Xrotation
  JOINT Hips
  {
    OFFSET 0.0 100.0 0.0
    CHANNELS 6 Xposition Yposition Zposition Zrotation Yrotation Xrotation
    JOINT Spine1
    {
      OFFSET -0.013727 5.003763 -0.053727
      CHANNELS 3 Zrotation Yrotation Xrotation
      JOINT Spine2
      {
        OFFSET -0.0 7.125301 -0.029825
        CHANNELS 3 Zrotation Yrotation Xrotation
        JOINT Chest
        {
          OFFSET -1e-06 7.550063 -0.815971
          CHANNELS 3 Zrotation Yrotation Xrotation
          JOINT Neck1
          {
            OFFSET -0.181677 26.311295 -0.553348
            CHANNELS 3 Zrotation Yrotation Xrotation
            JOINT Neck2
            {
              OFFSET -3e-06 7.709397 2.302585
              CHANNELS 3 Zrotation Yrotation Xrotation
              JOINT Head
              {
                OFFSET -5e-06 6.128916 1.953709
                CHANNELS 3 Zrotation Yrotation Xrotation
                JOINT HeadEnd
                {
                  OFFSET 0.003598 16.065403 -1.835379
                  CHANNELS 3 Zrotation Yrotation Xrotation
                }
                JOINT Jaw
                {
                  OFFSET 0.002637 0.475592 3.094941
                  CHANNELS 3 Zrotation Yrotation Xrotation
                }
                JOINT LeftEye
                {
                  OFFSET 3.206381 5.380205 7.586883
                  CHANNELS 3 Zrotation Yrotation Xrotation
                }
                JOINT RightEye
                {
                  OFFSET -3.22244 5.361869 7.558234
                  CHANNELS 3 Zrotation Yrotation Xrotation
                }
              }
            }
          }
          JOINT LeftShoulder
          {
            OFFSET 1.621652 23.237164 5.113413
            CHANNELS 3 Zrotation Yrotation Xrotation
            JOINT LeftArm
            {
              OFFSET 14.919846 2e-06 -5.502326
              CHANNELS 3 Zrotation Yrotation Xrotation
              JOINT LeftForeArm
              {
                OFFSET 28.739307 0.0 -0.002588
                CHANNELS 3 Zrotation Yrotation Xrotation
                JOINT LeftHand
                {
                  OFFSET 27.093981 -1e-06 0.002609
                  CHANNELS 3 Zrotation Yrotation Xrotation
                  JOINT LeftHandThumb1
                  {
                    OFFSET 2.276482 -1.392045 3.191413
                    CHANNELS 3 Zrotation Yrotation Xrotation
                    JOINT LeftHandThumb2
                    {
                      OFFSET 4.012836 -1.828127 1.641654
                      CHANNELS 3 Zrotation Yrotation Xrotation
                      JOINT LeftHandThumb3
                      {
                        OFFSET 2.798515 0.0 -3e-06
                        CHANNELS 3 Zrotation Yrotation Xrotation
                        JOINT LeftHandThumbEnd
                        {
                          OFFSET 3.180793 -4e-06 4e-06
                          CHANNELS 3 Zrotation Yrotation Xrotation
                        }
                      }
                    }
                  }
                  JOINT LeftHandIndex1
                  {
                    OFFSET 3.247555 -0.531998 2.296169
                    CHANNELS 3 Zrotation Yrotation Xrotation
                    JOINT LeftHandIndex2
                    {
                      OFFSET 6.364578 0.01206 0.1786
                      CHANNELS 3 Zrotation Yrotation Xrotation
                      JOINT LeftHandIndex3
                      {
                        OFFSET 3.662364 0.0 0.0
                        CHANNELS 3 Zrotation Yrotation Xrotation
                        JOINT LeftHandIndex4
                        {
                          OFFSET 2.329242 4e-06 4e-06
                          CHANNELS 3 Zrotation Yrotation Xrotation
                          JOINT LeftHandIndexEnd
                          {
                            OFFSET 2.759615 -0.180537 -0.113024
                            CHANNELS 3 Zrotation Yrotation Xrotation
                          }
                        }
                      }
                    }
                  }
                  JOINT LeftHandMiddle1
                  {
                    OFFSET 3.163495 0.240981 1.000332
                    CHANNELS 3 Zrotation Yrotation Xrotation
                    JOINT LeftHandMiddle2
                    {
                      OFFSET 6.19078 -0.259278 -1.002548
                      CHANNELS 3 Zrotation Yrotation Xrotation
                      JOINT LeftHandMiddle3
                      {
                        OFFSET 4.35652 -4e-06 -1e-06
                        CHANNELS 3 Zrotation Yrotation Xrotation
                        JOINT LeftHandMiddle4
                        {
                          OFFSET 2.996877 -8e-06 0.0
                          CHANNELS 3 Zrotation Yrotation Xrotation
                          JOINT LeftHandMiddleEnd
                          {
                            OFFSET 2.304287 -0.294569 -0.031741
                            CHANNELS 3 Zrotation Yrotation Xrotation
                          }
                        }
                      }
                    }
                  }
                  JOINT LeftHandRing1
                  {
                    OFFSET 2.882643 -0.053652 -0.322543
                    CHANNELS 3 Zrotation Yrotation Xrotation
                    JOINT LeftHandRing2
                    {
                      OFFSET 5.854541 -0.486202 -1.373841
                      CHANNELS 3 Zrotation Yrotation Xrotation
                      JOINT LeftHandRing3
                      {
                        OFFSET 4.350578 0.0 3e-06
                        CHANNELS 3 Zrotation Yrotation Xrotation
                        JOINT LeftHandRing4
                        {
                          OFFSET 2.651321 7e-06 2e-06
                          CHANNELS 3 Zrotation Yrotation Xrotation
                          JOINT LeftHandRingEnd
                          {
                            OFFSET 1.936105 0.077687 -7.1e-05
                            CHANNELS 3 Zrotation Yrotation Xrotation
                          }
                        }
                      }
                    }
                  }
                  JOINT LeftHandPinky1
                  {
                    OFFSET 2.8655 -0.310005 -1.600378
                    CHANNELS 3 Zrotation Yrotation Xrotation
                    JOINT LeftHandPinky2
                    {
                      OFFSET 5.087849 -1.331141 -1.77123
                      CHANNELS 3 Zrotation Yrotation Xrotation
                      JOINT LeftHandPinky3
                      {
                        OFFSET 3.070974 4e-06 0.0
                        CHANNELS 3 Zrotation Yrotation Xrotation
                        JOINT LeftHandPinky4
                        {
                          OFFSET 1.549672 0.0 1e-06
                          CHANNELS 3 Zrotation Yrotation Xrotation
                          JOINT LeftHandPinkyEnd
                          {
                            OFFSET 1.944893 -0.157802 0.057219
                            CHANNELS 3 Zrotation Yrotation Xrotation
                          }
                        }
                      }
                    }
                  }
                }
              }
            }
          }
          JOINT RightShoulder
          {
            OFFSET -1.380118 23.180309 5.214158
            CHANNELS 3 Zrotation Yrotation Xrotation
            JOINT RightArm
            {
              OFFSET -15.037196 1.2e-05 -5.545604
              CHANNELS 3 Zrotation Yrotation Xrotation
              JOINT RightForeArm
              {
                OFFSET -28.736639 2e-06 -0.002597
                CHANNELS 3 Zrotation Yrotation Xrotation
                JOINT RightHand
                {
                  OFFSET -27.133619 -0.0 0.002613
                  CHANNELS 3 Zrotation Yrotation Xrotation
                  JOINT RightHandThumb1
                  {
                    OFFSET -2.274032 -1.383988 3.163127
                    CHANNELS 3 Zrotation Yrotation Xrotation
                    JOINT RightHandThumb2
                    {
                      OFFSET -4.011429 -1.827466 1.640914
                      CHANNELS 3 Zrotation Yrotation Xrotation
                      JOINT RightHandThumb3
                      {
                        OFFSET -2.794935 -4e-06 -3e-06
                        CHANNELS 3 Zrotation Yrotation Xrotation
                        JOINT RightHandThumbEnd
                        {
                          OFFSET -3.183852 4e-06 1e-06
                          CHANNELS 3 Zrotation Yrotation Xrotation
                        }
                      }
                    }
                  }
                  JOINT RightHandIndex1
                  {
                    OFFSET -3.253266 -0.520057 2.282866
                    CHANNELS 3 Zrotation Yrotation Xrotation
                    JOINT RightHandIndex2
                    {
                      OFFSET -6.341917 0.012471 0.178266
                      CHANNELS 3 Zrotation Yrotation Xrotation
                      JOINT RightHandIndex3
                      {
                        OFFSET -3.654871 -8e-06 -0.0
                        CHANNELS 3 Zrotation Yrotation Xrotation
                        JOINT RightHandIndex4
                        {
                          OFFSET -2.327586 0.0 1e-06
                          CHANNELS 3 Zrotation Yrotation Xrotation
                          JOINT RightHandIndexEnd
                          {
                            OFFSET -2.76179 -0.180656 -0.113078
                            CHANNELS 3 Zrotation Yrotation Xrotation
                          }
                        }
                      }
                    }
                  }
                  JOINT RightHandMiddle1
                  {
                    OFFSET -3.168106 0.246593 1.00103
                    CHANNELS 3 Zrotation Yrotation Xrotation
                    JOINT RightHandMiddle2
                    {
                      OFFSET -6.180828 -0.258836 -1.000895
                      CHANNELS 3 Zrotation Yrotation Xrotation
                      JOINT RightHandMiddle3
                      {
                        OFFSET -4.348901 0.0 -0.0
                        CHANNELS 3 Zrotation Yrotation Xrotation
                        JOINT RightHandMiddle4
                        {
                          OFFSET -3.00024 -4e-06 -2e-06
                          CHANNELS 3 Zrotation Yrotation Xrotation
                          JOINT RightHandMiddleEnd
                          {
                            OFFSET -2.30252 -0.29437 -0.031706
                            CHANNELS 3 Zrotation Yrotation Xrotation
                          }
                        }
                      }
                    }
                  }
                  JOINT RightHandRing1
                  {
                    OFFSET -2.88569 -0.067952 -0.308858
                    CHANNELS 3 Zrotation Yrotation Xrotation
                    JOINT RightHandRing2
                    {
                      OFFSET -5.854198 -0.48613 -1.373731
                      CHANNELS 3 Zrotation Yrotation Xrotation
                      JOINT RightHandRing3
                      {
                        OFFSET -4.33881 -4e-06 -0.0
                        CHANNELS 3 Zrotation Yrotation Xrotation
                        JOINT RightHandRing4
                        {
                          OFFSET -2.654903 -4e-06 4e-06
                          CHANNELS 3 Zrotation Yrotation Xrotation
                          JOINT RightHandRingEnd
                          {
                            OFFSET -1.933568 0.077527 -5.2e-05
                            CHANNELS 3 Zrotation Yrotation Xrotation
                          }
                        }
                      }
                    }
                  }
                  JOINT RightHandPinky1
                  {
                    OFFSET -2.866425 -0.342796 -1.584145
                    CHANNELS 3 Zrotation Yrotation Xrotation
                    JOINT RightHandPinky2
                    {
                      OFFSET -5.091371 -1.332055 -1.772385
                      CHANNELS 3 Zrotation Yrotation Xrotation
                      JOINT RightHandPinky3
                      {
                        OFFSET -3.062664 -4e-06 1e-06
                        CHANNELS 3 Zrotation Yrotation Xrotation
                        JOINT RightHandPinky4
                        {
                          OFFSET -1.546529 4e-06 -2e-06
                          CHANNELS 3 Zrotation Yrotation Xrotation
                          JOINT RightHandPinkyEnd
                          {
                            OFFSET -1.945119 -0.157718 0.057211
                            CHANNELS 3 Zrotation Yrotation Xrotation
                          }
                        }
                      }
                    }
                  }
                }
              }
            }
          }
        }
      }
    }
    JOINT LeftLeg
    {
      OFFSET 10.043214 -8.434526 2.595655
      CHANNELS 3 Zrotation Yrotation Xrotation
      JOINT LeftShin
      {
        OFFSET -1e-06 -43.221752 -0.802913
        CHANNELS 3 Zrotation Yrotation Xrotation
        JOINT LeftFoot
        {
          OFFSET 1e-06 -42.155094 -3.481523
          CHANNELS 3 Zrotation Yrotation Xrotation
          JOINT LeftToeBase
          {
            OFFSET 0.0 -5.059472 13.231529
            CHANNELS 3 Zrotation Yrotation Xrotation
            JOINT LeftToeEnd
            {
              OFFSET -0.009607 -1.647619 6.513017
              CHANNELS 3 Zrotation Yrotation Xrotation
            }
          }
        }
      }
    }
    JOINT RightLeg
    {
      OFFSET -10.047278 -8.29526 2.620317
      CHANNELS 3 Zrotation Yrotation Xrotation
      JOINT RightShin
      {
        OFFSET 1e-06 -43.362206 -0.805556
        CHANNELS 3 Zrotation Yrotation Xrotation
        JOINT RightFoot
        {
          OFFSET 2e-06 -42.117393 -3.478398
          CHANNELS 3 Zrotation Yrotation Xrotation
          JOINT RightToeBase
          {
            OFFSET -0.0 -5.079609 13.284196
            CHANNELS 3 Zrotation Yrotation Xrotation
            JOINT RightToeEnd
            {
              OFFSET 0.009532 -1.634378 6.460591
              CHANNELS 3 Zrotation Yrotation Xrotation
            }
          }
        }
      }
    }
  }
}
MOTION
Frames: 4
Frame Time: 0.03333333333333333
0.0 0.0 0.0 0.0 -0.0 0.0 0.64609 100.29744 -0.65662 1.294539 -0.001466 -0.475391 -0.462573 -0.085405 -1.786417 -0.762798 0.468313 -5.459136 -1.605361 -1.658218 10.964339 3.669842 1.672991 -0.626248 -1.351214 -2.028071 -3.580359 -1.067785 -2.614906 -10.153841 7.7e-05 -2.2e-05 9e-06 0.004506 -0.068246 0.031103 0.672419 -3.80887 -10.522889 -0.66397 3.678652 -10.530191 -13.863627 -3.622284 13.647999 -60.620518 -13.699938 28.828461 0.573094 -23.71582 -0.110211 4.715067 5.300478 -3.922266 -5.882049 9.861308 0.702506 -10.936939 -0.360673 7.156143 -2.2e-05 8.774798 -1.4e-05 -16.284964 17.902819 5.849142 -1.844025 2.498506 -2.507267 -10.163562 4.678953 4.621109 -20.975927 3.5e-05 -1.6e-05 -21.226215 2.451715 -3.594046 -1e-06 -5e-06 -0.0 -1.362689 2.240792 -0.746317 -21.334812 0.584959 3.008323 -13.821157 2.2e-05 -1e-05 -23.887068 -0.249044 -0.839539 -60.096172 2.501985 -1.371587 -0.294036 1.679678 0.833261 -14.218139 0.093257 1.300596 -34.211887 -0.287506 0.967126 -20.033152 0.964553 1.212813 -2e-06 -1e-06 2e-06 -3.440373 0.788238 0.501674 -15.928129 -3.167272 2.999725 -6.3388 1.2e-05 -1e-06 -18.123405 3.64822 -4.905706 -3e-06 0.0 -2e-06 20.934103 7.809147 16.726065 55.521488 17.619595 6.511744 1.485807 28.369898 0.510658 -8.753518 -4.305789 -1.215546 2.243577 -5.254981 -3.180079 14.28293 -0.82661 6.952528 2e-05 -12.690631 -6e-06 15.84288 -17.433443 2.900489 1.665661 -1.955925 -2.878297 4.727799 -4.170603 4.993917 11.020544 -1.3e-05 1e-05 12.109123 -3.735769 -2.866819 -2e-06 -0.0 -2e-06 1.29199 -1.928571 -1.498091 14.800114 0.567471 3.865623 14.242586 -1.341768 -6.660669 19.632065 0.143881 -0.648267 49.477058 -0.454856 -6.297871 0.353036 -1.511178 -0.031942 20.222761 3.684322 2.316653 18.787312 -2.5e-05 9e-06 10.751665 -0.479884 1.397921 0.0 -0.0 3e-06 3.273812 0.305896 -0.5801 21.486765 11.830424 2.266168 8.162945 -1.1e-05 7e-06 18.399189 -3.799027 -4.940619 3e-06 -1e-06 -4e-06 1.840738 -2.869104 1.172327 0.052109 0.0297 1.876848 -4.762335 -0.748222 -3.177355 1.645632 -2.111736 -1.203611 0.0 0.0 3e-06 -4.854258 -8.821816 1.211091 0.005606 0.054198 1.944093 5.094939 1.233811 -2.517791 -1.416359 0.980033 -0.857701 0.0 -0.0 -1e-06 
0.0 0.0 0.0 0.0 -0.0 0.0 0.735979 100.338783 -0.721513 1.298179 -0.138756 -0.521623 -0.465463 -0.12831 -1.752721 -0.732431 0.540798 -5.42599 -1.556655 -1.67494 10.957697 3.897573 1.61142 -0.702547 -1.374374 -2.29344 -3.564602 -1.252697 -2.863112 -10.184282 7.7e-05 -2.2e-05 6e-06 0.000194 -0.069745 0.023111 0.665199 -3.807531 -10.509633 -0.665063 3.672331 -10.518637 -13.616024 -3.674735 13.583723 -60.912037 -13.727342 28.734161 0.565176 -23.754122 -0.17906 4.982087 5.045948 -3.715384 -5.88208 9.861287 0.702642 -10.93683 -0.360536 7.156291 -4e-06 8.774846 4e-06 -16.270866 17.914921 5.789675 -1.844032 2.498504 -2.507282 -10.163611 4.678959 4.621086 -20.97608 8e-06 -1.1e-05 -21.226439 2.451713 -3.594075 1e-06 -6e-06 -3e-06 -1.362689 2.240802 -0.746325 -21.334929 0.584905 3.008306 -13.821252 5e-06 -6e-06 -23.887381 -0.249083 -0.839544 -60.022991 2.556543 -1.452127 -0.294035 1.679694 0.83325 -14.218207 0.093198 1.300566 -34.21217 -0.287555 0.967154 -20.033323 0.964546 1.212846 1e-06 0.0 2e-06 -3.440407 0.788252 0.501646 -15.928159 -3.167345 2.999707 -6.338844 2e-06 -2e-06 -18.1236 3.648188 -4.90575 -5e-06 -2e-06 -5e-06 20.891527 8.31784 16.717888 53.164371 19.534313 4.043103 1.301495 31.559723 0.356787 -9.811846 -5.186157 -2.209296 2.243536 -5.255077 -3.180284 14.282905 -0.826545 6.952428 -5e-06 -12.690579 -8e-06 15.831041 -17.566532 2.930517 1.665662 -1.955921 -2.878289 4.727784 -4.170578 4.993929 11.020503 7e-06 2e-06 12.109029 -3.735701 -2.86679 0.0 -2e-06 0.0 1.29198 -1.928536 -1.498079 14.800095 0.567456 3.865616 14.242535 -1.341736 -6.660645 19.631945 0.143948 -0.648239 49.688831 -0.458468 -6.299638 0.353023 -1.511135 -0.031931 20.22275 3.684287 2.316637 18.78723 1.2e-05 3e-06 10.751615 -0.479858 1.39791 3e-06 3e-06 0.0 3.273775 0.305975 -0.58009 21.48679 11.830324 2.266143 8.162906 2e-06 2e-06 18.399063 -3.798962 -4.940568 4e-06 -1e-06 -3e-06 1.777908 -2.628508 1.213967 0.044764 -0.02581 1.867549 -4.729178 -0.691009 -3.276372 1.648301 -2.150581 -1.283809 0.0 0.0 3e-06 -4.898005 -8.604667 1.179879 0.007033 0.085565 2.014138 5.162469 1.26422 -2.484998 -1.421569 0.977542 -0.840968 -0.0 -0.0 3e-06 
0.0 0.0 0.0 0.0 -0.0 0.0 0.833619 100.350151 -0.798091 1.317724 -0.197832 -0.537715 -0.505906 -0.15957 -1.765014 -0.720681 0.605604 -5.439182 -1.43675 -1.67762 11.048045 4.177164 1.562161 -0.754397 -1.457514 -2.675673 -3.596138 -1.527293 -3.27158 -10.11813 7.7e-05 -2.2e-05 6e-06 -0.001336 -0.085254 0.022608 0.658286 -3.820086 -10.517672 -0.661201 3.65179 -10.524677 -13.331298 -3.79536 13.528609 -61.179787 -13.713293 28.707838 0.511058 -23.941069 -0.240304 5.114337 4.939937 -3.809497 -5.882191 9.860952 0.703066 -10.936629 -0.360312 7.15647 2e-06 8.774963 -8e-06 -16.238531 17.940256 5.768746 -1.844055 2.498511 -2.507312 -10.16374 4.679023 4.621037 -20.976379 -2.1e-05 -1.9e-05 -21.226826 2.451743 -3.594182 1e-06 -5e-06 2e-06 -1.362723 2.240926 -0.746366 -21.335165 0.584783 3.008303 -13.821433 -1.5e-05 -1.5e-05 -23.887844 -0.249115 -0.839607 -59.96489 2.600053 -1.512304 -0.294076 1.679856 0.833217 -14.218331 0.093036 1.300558 -34.212662 -0.28761 0.967156 -20.03356 0.964516 1.212869 1e-06 2e-06 -0.0 -3.440574 0.788478 0.50154 -15.928196 -3.167605 2.999766 -6.338923 -5e-06 -1.2e-05 -18.123926 3.648185 -4.905852 -3e-06 1e-06 -3e-06 20.889633 8.943052 16.564793 50.438492 21.601257 0.698058 1.049337 35.030548 0.240443 -11.838629 -6.374756 -2.711788 2.243531 -5.254794 -3.179784 14.282729 -0.826831 6.952733 -1.5e-05 -12.69074 8e-06 15.736448 -17.683578 2.997802 1.665682 -1.955916 -2.878335 4.727848 -4.170637 4.993882 11.020649 1.5e-05 -1.6e-05 12.10928 -3.735757 -2.866893 0.0 -3e-06 -1e-06 1.292017 -1.928639 -1.498124 14.800243 0.56757 3.865582 14.24273 -1.341733 -6.660744 19.632376 0.143976 -0.648327 49.771725 -0.495458 -6.268195 0.353071 -1.511273 -0.031976 20.222931 3.684485 2.316617 18.787468 2.8e-05 -2.2e-05 10.75173 -0.47986 1.397929 4e-06 2e-06 1e-06 3.273942 0.305776 -0.580202 21.486874 11.830672 2.266174 8.163005 8e-06 -1.2e-05 18.399393 -3.798964 -4.940701 3e-06 1e-06 -1e-06 1.687676 -2.507161 1.173789 0.048049 -0.05673 1.921613 -4.615155 -0.68252 -3.350724 1.6496 -2.155802 -1.259144 -0.0 0.0 -6e-06 -4.983784 -8.48887 1.094927 0.008966 0.100934 2.144608 5.280561 1.367069 -2.456637 -1.423863 0.994633 -0.807229 0.0 -0.0 -5e-06 
0.0 0.0 0.0 0.0 -0.0 0.0 0.931347 100.337265 -0.878013 1.343111 -0.219359 -0.530088 -0.567352 -0.172699 -1.79144 -0.715164 0.688539 -5.483386 -1.272417 -1.688154 11.167034 4.422388 1.498339 -0.771175 -1.547038 -3.079717 -3.616013 -1.816584 -3.701287 -10.079766 7.7e-05 -2.2e-05 6e-06 -0.002005 -0.098726 0.021681 0.653459 -3.8316 -10.54087 -0.657922 3.6343 -10.54051 -12.996977 -3.902118 13.477254 -61.447681 -13.744362 29.038399 0.52501 -24.112654 -0.311043 5.090123 4.928752 -3.805116 -5.882118 9.861272 0.702452 -10.936824 -0.360565 7.156146 1e-05 8.774829 -8e-06 -16.178186 17.925915 5.783284 -1.844031 2.498502 -2.507273 -10.163588 4.678932 4.621107 -20.976019 -3.8e-05 7e-06 -21.226301 2.451658 -3.593993 0.0 -5e-06 1e-06 -1.362673 2.240795 -0.746316 -21.334927 0.584881 3.008324 -13.82122 -2.4e-05 7e-06 -23.887249 -0.249129 -0.839474 -59.971909 2.625912 -1.518557 -0.294013 1.679683 0.833262 -14.218219 0.093199 1.300585 -34.212055 -0.287619 0.96719 -20.033241 0.964508 1.212867 -1e-06 1e-06 -0.0 -3.440376 0.788217 0.501662 -15.928205 -3.16732 2.999708 -6.338825 -1.3e-05 0.0 -18.123476 3.648134 -4.905678 -4e-06 -2e-06 -3e-06 20.892443 9.645377 16.375479 47.479702 23.919662 -3.662696 0.766598 38.7117 0.24118 -14.961837 -7.465196 -3.035072 2.243521 -5.255097 -3.180153 14.282825 -0.826654 6.952558 -2e-05 -12.690614 2.3e-05 15.514454 -17.736448 3.071269 1.665671 -1.955918 -2.878302 4.727813 -4.170582 4.993918 11.020565 1.2e-05 -5e-06 12.109134 -3.735696 -2.8668 1e-06 1e-06 -0.0 1.291993 -1.928549 -1.498085 14.800159 0.567484 3.865583 14.24262 -1.341719 -6.660673 19.632141 0.143969 -0.648267 49.741543 -0.541892 -6.195002 0.353038 -1.511151 -0.031935 20.222828 3.684334 2.3166 18.787336 2.1e-05 -7e-06 10.751669 -0.479863 1.397914 1e-06 2e-06 0.0 3.273841 0.305949 -0.580113 21.486818 11.830409 2.266094 8.162953 3e-06 -7e-06 18.399216 -3.798957 -4.94061 5e-06 -2e-06 0.0 1.586475 -2.446411 1.076026 0.056788 -0.080071 2.00244 -4.499223 -0.672906 -3.381216 1.648899 -2.151259 -1.218337 0.0 0.0 1e-06 -5.080337 -8.415946 1.00028 0.006512 0.101319 2.229857 5.423803 1.461899 -2.42176 -1.421591 1.001879 -0.863071 0.0 -0.0 -4e-06 
